<?xml version="1.0" standalone="no"?><!DOCTYPE svg PUBLIC "-//W3C//DTD SVG 1.1//EN" "http://www.w3.org/Graphics/SVG/1.1/DTD/svg11.dtd"><svg t="1701525994417" class="icon" viewBox="0 0 1024 1024" version="1.1" xmlns="http://www.w3.org/2000/svg" p-id="1466" width="16" height="16" xmlns:xlink="http://www.w3.org/1999/xlink"><path d="M511.4 960.2C264 960.2 62.7 760.5 62.7 515.1 62.7 269.7 264 70 511.4 70c97.9 0 191 30.7 269.1 88.9 15.2 11.4 18.3 32.8 6.9 47.9-11.4 15.1-33.1 18.2-48.3 6.8-66.1-49.2-144.8-75.2-227.7-75.2-209.3 0-379.7 168.9-379.7 376.6 0 207.6 170.3 376.6 379.7 376.6S891 722.8 891 515.2c0-48.5-9.2-95.7-27.2-140.3-7.1-17.6 1.5-37.5 19.2-44.5s37.8 1.5 44.9 19c21.4 52.7 32.2 108.5 32.2 165.8 0 245.4-201.3 445-448.7 445z" fill="#d81e06" p-id="1467"></path><path d="M790.1 273.6a39.8 39.5 0 1 0 79.6 0 39.8 39.5 0 1 0-79.6 0Z" fill="#d81e06" p-id="1468"></path><path d="M693.7 700.9c-7.8 0-15.7-2.6-22.2-8l-365-303.8c-14.6-12.2-16.5-33.8-4.3-48.2 12.3-14.5 34-16.4 48.6-4.2l365 303.8c14.6 12.2 16.5 33.8 4.3 48.2-6.7 8-16.5 12.2-26.4 12.2z" fill="#d81e06" p-id="1469"></path></svg>